<mxfile host="app.diagrams.net" modified="2021-09-22T20:13:37.023Z" agent="5.0 (Windows NT 10.0; Win64; x64) AppleWebKit/537.36 (KHTML, like Gecko) Chrome/92.0.4515.131 Safari/537.36 OPR/78.0.4093.214" etag="CTb1G3RR1Jmu28QjIxcD" version="15.3.0" type="github">
  <diagram id="i_p06XZrNtStNfNZLIwT" name="Page-1">
    <mxGraphModel dx="2848" dy="1086" grid="1" gridSize="10" guides="1" tooltips="1" connect="1" arrows="1" fold="1" page="1" pageScale="1" pageWidth="827" pageHeight="1169" math="0" shadow="0">
      <root>
        <mxCell id="0" />
        <mxCell id="1" parent="0" />
        <mxCell id="Hhu1_vtvKab3z7m5SkjY-1" value="Товарищ фрилансер" style="shape=umlActor;verticalLabelPosition=bottom;verticalAlign=top;html=1;outlineConnect=0;" vertex="1" parent="1">
          <mxGeometry x="30" y="30" width="50" height="90" as="geometry" />
        </mxCell>
        <mxCell id="Hhu1_vtvKab3z7m5SkjY-2" value="заказчик" style="rounded=0;whiteSpace=wrap;html=1;" vertex="1" parent="1">
          <mxGeometry x="220" y="32.5" width="140" height="85" as="geometry" />
        </mxCell>
        <mxCell id="Hhu1_vtvKab3z7m5SkjY-3" value="заказ" style="rounded=0;whiteSpace=wrap;html=1;" vertex="1" parent="1">
          <mxGeometry x="500" y="32.5" width="140" height="85" as="geometry" />
        </mxCell>
        <mxCell id="Hhu1_vtvKab3z7m5SkjY-4" value="" style="endArrow=none;html=1;entryX=0.5;entryY=1;entryDx=0;entryDy=0;startArrow=none;" edge="1" parent="1" target="Hhu1_vtvKab3z7m5SkjY-2" source="Hhu1_vtvKab3z7m5SkjY-46">
          <mxGeometry width="50" height="50" relative="1" as="geometry">
            <mxPoint x="290" y="830" as="sourcePoint" />
            <mxPoint x="370" y="140" as="targetPoint" />
          </mxGeometry>
        </mxCell>
        <mxCell id="Hhu1_vtvKab3z7m5SkjY-5" value="" style="endArrow=none;html=1;entryX=0.5;entryY=1;entryDx=0;entryDy=0;" edge="1" parent="1">
          <mxGeometry width="50" height="50" relative="1" as="geometry">
            <mxPoint x="569" y="1010" as="sourcePoint" />
            <mxPoint x="569.29" y="117.5" as="targetPoint" />
          </mxGeometry>
        </mxCell>
        <mxCell id="Hhu1_vtvKab3z7m5SkjY-6" value="" style="endArrow=none;html=1;startArrow=none;" edge="1" parent="1" source="Hhu1_vtvKab3z7m5SkjY-27">
          <mxGeometry width="50" height="50" relative="1" as="geometry">
            <mxPoint x="55" y="850" as="sourcePoint" />
            <mxPoint x="55" y="150" as="targetPoint" />
          </mxGeometry>
        </mxCell>
        <mxCell id="Hhu1_vtvKab3z7m5SkjY-7" value="" style="rounded=0;whiteSpace=wrap;html=1;" vertex="1" parent="1">
          <mxGeometry x="50" y="160" width="10" height="40" as="geometry" />
        </mxCell>
        <mxCell id="Hhu1_vtvKab3z7m5SkjY-8" value="" style="endArrow=classic;html=1;exitX=1;exitY=1;exitDx=0;exitDy=0;entryX=0;entryY=0;entryDx=0;entryDy=0;" edge="1" parent="1" source="Hhu1_vtvKab3z7m5SkjY-7" target="Hhu1_vtvKab3z7m5SkjY-10">
          <mxGeometry width="50" height="50" relative="1" as="geometry">
            <mxPoint x="80" y="200" as="sourcePoint" />
            <mxPoint x="250" y="200" as="targetPoint" />
          </mxGeometry>
        </mxCell>
        <mxCell id="Hhu1_vtvKab3z7m5SkjY-9" value="выставление вакансии" style="text;html=1;align=center;verticalAlign=middle;resizable=0;points=[];autosize=1;strokeColor=none;fillColor=none;" vertex="1" parent="1">
          <mxGeometry x="55" y="180" width="170" height="20" as="geometry" />
        </mxCell>
        <mxCell id="Hhu1_vtvKab3z7m5SkjY-10" value="" style="rounded=0;whiteSpace=wrap;html=1;" vertex="1" parent="1">
          <mxGeometry x="285" y="200" width="10" height="30" as="geometry" />
        </mxCell>
        <mxCell id="Hhu1_vtvKab3z7m5SkjY-11" value="" style="endArrow=classic;html=1;exitX=0;exitY=1;exitDx=0;exitDy=0;entryX=0.75;entryY=0;entryDx=0;entryDy=0;" edge="1" parent="1" source="Hhu1_vtvKab3z7m5SkjY-10" target="Hhu1_vtvKab3z7m5SkjY-13">
          <mxGeometry width="50" height="50" relative="1" as="geometry">
            <mxPoint x="250" y="330" as="sourcePoint" />
            <mxPoint x="80" y="230" as="targetPoint" />
          </mxGeometry>
        </mxCell>
        <mxCell id="Hhu1_vtvKab3z7m5SkjY-12" value="выставление заказа" style="text;html=1;align=center;verticalAlign=middle;resizable=0;points=[];autosize=1;strokeColor=none;fillColor=none;" vertex="1" parent="1">
          <mxGeometry x="110" y="210" width="160" height="20" as="geometry" />
        </mxCell>
        <mxCell id="Hhu1_vtvKab3z7m5SkjY-13" value="" style="rounded=0;whiteSpace=wrap;html=1;" vertex="1" parent="1">
          <mxGeometry x="50" y="230" width="10" height="50" as="geometry" />
        </mxCell>
        <mxCell id="Hhu1_vtvKab3z7m5SkjY-14" value="" style="endArrow=classic;html=1;exitX=1;exitY=1;exitDx=0;exitDy=0;entryX=0;entryY=0;entryDx=0;entryDy=0;" edge="1" parent="1">
          <mxGeometry width="50" height="50" relative="1" as="geometry">
            <mxPoint x="60" y="279" as="sourcePoint" />
            <mxPoint x="285" y="279" as="targetPoint" />
          </mxGeometry>
        </mxCell>
        <mxCell id="Hhu1_vtvKab3z7m5SkjY-15" value="выставление требований" style="text;html=1;align=center;verticalAlign=middle;resizable=0;points=[];autosize=1;strokeColor=none;fillColor=none;" vertex="1" parent="1">
          <mxGeometry x="75" y="260" width="190" height="20" as="geometry" />
        </mxCell>
        <mxCell id="Hhu1_vtvKab3z7m5SkjY-16" value="" style="rounded=0;whiteSpace=wrap;html=1;" vertex="1" parent="1">
          <mxGeometry x="285" y="280" width="10" height="50" as="geometry" />
        </mxCell>
        <mxCell id="Hhu1_vtvKab3z7m5SkjY-17" value="" style="endArrow=classic;html=1;exitX=0;exitY=1;exitDx=0;exitDy=0;entryX=0.75;entryY=0;entryDx=0;entryDy=0;" edge="1" parent="1">
          <mxGeometry width="50" height="50" relative="1" as="geometry">
            <mxPoint x="287.5" y="330" as="sourcePoint" />
            <mxPoint x="60" y="330" as="targetPoint" />
          </mxGeometry>
        </mxCell>
        <mxCell id="Hhu1_vtvKab3z7m5SkjY-18" value="" style="rounded=0;whiteSpace=wrap;html=1;" vertex="1" parent="1">
          <mxGeometry x="50" y="330" width="10" height="50" as="geometry" />
        </mxCell>
        <mxCell id="Hhu1_vtvKab3z7m5SkjY-19" value="отправка техзадания" style="text;html=1;align=center;verticalAlign=middle;resizable=0;points=[];autosize=1;strokeColor=none;fillColor=none;" vertex="1" parent="1">
          <mxGeometry x="80" y="310" width="160" height="20" as="geometry" />
        </mxCell>
        <mxCell id="Hhu1_vtvKab3z7m5SkjY-20" value="" style="endArrow=classic;html=1;exitX=1;exitY=1;exitDx=0;exitDy=0;entryX=0;entryY=0;entryDx=0;entryDy=0;" edge="1" parent="1" source="Hhu1_vtvKab3z7m5SkjY-18" target="Hhu1_vtvKab3z7m5SkjY-21">
          <mxGeometry width="50" height="50" relative="1" as="geometry">
            <mxPoint x="250" y="350" as="sourcePoint" />
            <mxPoint x="550" y="380" as="targetPoint" />
          </mxGeometry>
        </mxCell>
        <mxCell id="Hhu1_vtvKab3z7m5SkjY-21" value="" style="rounded=0;whiteSpace=wrap;html=1;" vertex="1" parent="1">
          <mxGeometry x="560" y="380" width="10" height="200" as="geometry" />
        </mxCell>
        <mxCell id="Hhu1_vtvKab3z7m5SkjY-22" value="выполнение заказа" style="text;html=1;align=center;verticalAlign=middle;resizable=0;points=[];autosize=1;strokeColor=none;fillColor=none;" vertex="1" parent="1">
          <mxGeometry x="325" y="360" width="150" height="20" as="geometry" />
        </mxCell>
        <mxCell id="Hhu1_vtvKab3z7m5SkjY-23" value="" style="endArrow=classic;html=1;exitX=0;exitY=1;exitDx=0;exitDy=0;entryX=0.5;entryY=0;entryDx=0;entryDy=0;entryPerimeter=0;" edge="1" parent="1" source="Hhu1_vtvKab3z7m5SkjY-21" target="Hhu1_vtvKab3z7m5SkjY-24">
          <mxGeometry width="50" height="50" relative="1" as="geometry">
            <mxPoint x="250" y="350" as="sourcePoint" />
            <mxPoint x="310" y="430" as="targetPoint" />
          </mxGeometry>
        </mxCell>
        <mxCell id="Hhu1_vtvKab3z7m5SkjY-24" value="" style="rounded=0;whiteSpace=wrap;html=1;" vertex="1" parent="1">
          <mxGeometry x="285" y="580" width="10" height="40" as="geometry" />
        </mxCell>
        <mxCell id="Hhu1_vtvKab3z7m5SkjY-26" value="" style="endArrow=classic;html=1;exitX=0;exitY=1;exitDx=0;exitDy=0;entryX=0.5;entryY=0;entryDx=0;entryDy=0;" edge="1" parent="1" source="Hhu1_vtvKab3z7m5SkjY-24" target="Hhu1_vtvKab3z7m5SkjY-27">
          <mxGeometry width="50" height="50" relative="1" as="geometry">
            <mxPoint x="-145" y="620" as="sourcePoint" />
            <mxPoint x="70" y="590" as="targetPoint" />
          </mxGeometry>
        </mxCell>
        <mxCell id="Hhu1_vtvKab3z7m5SkjY-32" value="" style="endArrow=classic;html=1;exitX=0;exitY=1;exitDx=0;exitDy=0;" edge="1" parent="1">
          <mxGeometry width="50" height="50" relative="1" as="geometry">
            <mxPoint x="560" y="750" as="sourcePoint" />
            <mxPoint x="300" y="750" as="targetPoint" />
          </mxGeometry>
        </mxCell>
        <mxCell id="Hhu1_vtvKab3z7m5SkjY-34" value="показ работы" style="text;html=1;align=center;verticalAlign=middle;resizable=0;points=[];autosize=1;strokeColor=none;fillColor=none;" vertex="1" parent="1">
          <mxGeometry x="365" y="560" width="110" height="20" as="geometry" />
        </mxCell>
        <mxCell id="Hhu1_vtvKab3z7m5SkjY-27" value="" style="rounded=0;whiteSpace=wrap;html=1;" vertex="1" parent="1">
          <mxGeometry x="50" y="620" width="10" height="30" as="geometry" />
        </mxCell>
        <mxCell id="Hhu1_vtvKab3z7m5SkjY-37" value="" style="endArrow=none;html=1;startArrow=none;" edge="1" parent="1" source="Hhu1_vtvKab3z7m5SkjY-49" target="Hhu1_vtvKab3z7m5SkjY-27">
          <mxGeometry width="50" height="50" relative="1" as="geometry">
            <mxPoint x="55" y="850" as="sourcePoint" />
            <mxPoint x="55" y="150" as="targetPoint" />
          </mxGeometry>
        </mxCell>
        <mxCell id="Hhu1_vtvKab3z7m5SkjY-40" value="выставление правок" style="text;html=1;align=center;verticalAlign=middle;resizable=0;points=[];autosize=1;strokeColor=none;fillColor=none;" vertex="1" parent="1">
          <mxGeometry x="70" y="600" width="160" height="20" as="geometry" />
        </mxCell>
        <mxCell id="Hhu1_vtvKab3z7m5SkjY-41" value="" style="rounded=0;whiteSpace=wrap;html=1;" vertex="1" parent="1">
          <mxGeometry x="560" y="650" width="10" height="100" as="geometry" />
        </mxCell>
        <mxCell id="Hhu1_vtvKab3z7m5SkjY-43" value="" style="endArrow=classic;html=1;exitX=1;exitY=1;exitDx=0;exitDy=0;" edge="1" parent="1">
          <mxGeometry width="50" height="50" relative="1" as="geometry">
            <mxPoint x="60" y="649" as="sourcePoint" />
            <mxPoint x="560" y="649" as="targetPoint" />
          </mxGeometry>
        </mxCell>
        <mxCell id="Hhu1_vtvKab3z7m5SkjY-44" value="испавление" style="text;html=1;align=center;verticalAlign=middle;resizable=0;points=[];autosize=1;strokeColor=none;fillColor=none;" vertex="1" parent="1">
          <mxGeometry x="310" y="630" width="100" height="20" as="geometry" />
        </mxCell>
        <mxCell id="Hhu1_vtvKab3z7m5SkjY-46" value="" style="rounded=0;whiteSpace=wrap;html=1;" vertex="1" parent="1">
          <mxGeometry x="285" y="750" width="10" height="30" as="geometry" />
        </mxCell>
        <mxCell id="Hhu1_vtvKab3z7m5SkjY-47" value="" style="endArrow=none;html=1;entryX=0.5;entryY=1;entryDx=0;entryDy=0;" edge="1" parent="1" target="Hhu1_vtvKab3z7m5SkjY-46">
          <mxGeometry width="50" height="50" relative="1" as="geometry">
            <mxPoint x="290" y="990" as="sourcePoint" />
            <mxPoint x="290" y="117.5" as="targetPoint" />
          </mxGeometry>
        </mxCell>
        <mxCell id="Hhu1_vtvKab3z7m5SkjY-48" value="показ исправлений" style="text;html=1;align=center;verticalAlign=middle;resizable=0;points=[];autosize=1;strokeColor=none;fillColor=none;" vertex="1" parent="1">
          <mxGeometry x="325" y="730" width="150" height="20" as="geometry" />
        </mxCell>
        <mxCell id="Hhu1_vtvKab3z7m5SkjY-49" value="" style="rounded=0;whiteSpace=wrap;html=1;" vertex="1" parent="1">
          <mxGeometry x="50" y="780" width="10" height="40" as="geometry" />
        </mxCell>
        <mxCell id="Hhu1_vtvKab3z7m5SkjY-50" value="" style="endArrow=none;html=1;" edge="1" parent="1" target="Hhu1_vtvKab3z7m5SkjY-49">
          <mxGeometry width="50" height="50" relative="1" as="geometry">
            <mxPoint x="55" y="980" as="sourcePoint" />
            <mxPoint x="55" y="650" as="targetPoint" />
          </mxGeometry>
        </mxCell>
        <mxCell id="Hhu1_vtvKab3z7m5SkjY-51" value="" style="endArrow=classic;html=1;exitX=0;exitY=1;exitDx=0;exitDy=0;" edge="1" parent="1">
          <mxGeometry width="50" height="50" relative="1" as="geometry">
            <mxPoint x="290" y="779" as="sourcePoint" />
            <mxPoint x="60" y="779" as="targetPoint" />
          </mxGeometry>
        </mxCell>
        <mxCell id="Hhu1_vtvKab3z7m5SkjY-52" value="согласие и оплата труда" style="text;html=1;align=center;verticalAlign=middle;resizable=0;points=[];autosize=1;strokeColor=none;fillColor=none;" vertex="1" parent="1">
          <mxGeometry x="65" y="760" width="190" height="20" as="geometry" />
        </mxCell>
      </root>
    </mxGraphModel>
  </diagram>
</mxfile>
